<svg xmlns:mydata="http://www.w3.org/2000/svg" mydata:contrastcolor="fac3d1" mydata:template="InvertedHex1" mydata:presentation="2.5" mydata:layouttype="undefined" mydata:specialfontid="undefined" mydata:id1="836" mydata:id2="479" mydata:companyname="Ken Shop" mydata:companytagline="" version="1.1" xmlns="http://www.w3.org/2000/svg" xmlns:xlink="http://www.w3.org/1999/xlink" viewBox="0 45 550 380"><g fill="#ffffff" fill-rule="nonzero" stroke="none" stroke-width="1" stroke-linecap="butt" stroke-linejoin="miter" stroke-miterlimit="10" stroke-dasharray="" stroke-dashoffset="0" font-family="none" font-weight="none" font-size="none" text-anchor="none" style="mix-blend-mode: normal"><g data-paper-data="{&quot;isGlobalGroup&quot;:true,&quot;bounds&quot;:{&quot;x&quot;:65,&quot;y&quot;:187.57895882879194,&quot;width&quot;:420,&quot;height&quot;:94.84208234241612}}"><g data-paper-data="{&quot;isPrimaryText&quot;:true}"><path d="M191.62517,248.94612c-2.92145,4.01699 -5.84289,7.06016 -11.07715,7.06016c-5.96462,0 -9.85988,-4.13872 -12.05097,-9.37298l24.8323,-8.03398c-0.36518,-11.07715 -6.20808,-21.30222 -18.5025,-21.30222c-13.38997,0 -21.91085,10.71197 -21.91085,23.61503c0,12.78133 7.42535,22.15431 20.81531,22.15431c9.61643,0 15.21587,-4.99081 19.59804,-13.14651zM167.27978,242.00769c-0.12173,-0.36518 -0.12173,-0.73036 -0.12173,-1.09554l-0.36518,-2.31281l-0.24345,-3.04317v-1.58245c0,-4.5039 1.46072,-13.63342 7.54707,-13.63342c2.92145,0 5.11253,2.19109 5.59944,4.99081c0.97382,3.77354 1.09554,11.80752 1.09554,11.80752l-13.02479,6.93844c-0.24345,-0.60863 -0.36518,-1.339 -0.48691,-2.06936z" data-paper-data="{&quot;glyphName&quot;:&quot;e&quot;,&quot;glyphIndex&quot;:1,&quot;word&quot;:1}"></path><path d="M242.87223,236.77343c0,-4.99081 -0.24345,-8.27743 -0.73036,-10.10334c-1.70418,-5.23426 -6.57326,-8.15571 -11.92924,-8.15571c-5.84289,0 -10.46852,2.92145 -14.48551,6.93844v-5.59944h-4.01699c-5.84289,0 -10.46852,4.26044 -10.46852,9.37298v32.01419c0,0.60863 0,1.21727 -0.12173,1.70418h14.60724v-32.5011c2.55627,-3.77354 5.23426,-5.59944 8.27743,-5.59944c1.94763,0 3.28663,1.09554 4.01699,2.92145c0.24345,0.85209 0.48691,3.1649 0.48691,6.69498v26.77993c0,0.60863 -0.12173,1.21727 -0.12173,1.70418c8.03398,0 14.60724,-5.84289 14.60724,-13.02479c0,-6.45153 -0.12173,-13.14651 -0.12173,-13.14651z" data-paper-data="{&quot;glyphName&quot;:&quot;n&quot;,&quot;glyphIndex&quot;:2,&quot;lastGlyphOfWord&quot;:true,&quot;word&quot;:1}"></path><path d="M324.06411,244.19877c0,-10.22507 -10.46852,-15.45933 -18.5025,-19.35459c-3.40836,-1.8259 -6.08635,-3.28663 -8.15571,-4.5039c-3.53008,-2.43454 -7.06016,-5.47771 -7.06016,-10.10334c0,-5.11253 3.77354,-9.25125 9.0078,-9.25125c5.59944,0 10.34679,2.79972 13.38997,7.42535c1.70418,2.19109 2.92145,4.62562 3.77354,7.42535h3.77354v-16.18969h-2.43454c-0.12173,0.12173 -0.73036,0.48691 -1.8259,1.21727c-1.21727,0.85209 -2.31281,1.94763 -3.40836,3.53008c-3.77354,-3.40836 -10.10334,-5.59944 -15.09414,-5.59944c-9.25125,0 -23.24985,3.1649 -23.24985,14.85069c0,6.81671 3.77354,12.05097 9.37298,15.58105c2.55627,1.70418 5.96462,3.53008 10.10334,5.72117c3.28663,1.58245 5.84289,3.04317 7.6688,4.13872c3.28663,2.06936 6.45153,4.86908 6.45153,9.0078c0,7.6688 -5.59944,10.46852 -12.53788,10.46852l-2.31281,-0.24345h-0.48691c-0.36518,-0.12173 -0.73036,-0.12173 -0.97382,-0.12173c-2.31281,-0.60863 -4.38217,-1.58245 -6.3298,-2.92145c-1.339,-1.339 -2.19109,-3.04317 -2.67799,-4.99081c-1.09554,-4.5039 1.339,-9.37298 7.30362,-10.46852c0.48691,-0.12173 0.97382,-0.12173 1.339,-0.12173c3.04317,0 5.84289,1.70418 6.45153,4.62562c0.60863,2.43454 -0.97382,4.86908 -3.53008,5.23426c-0.36518,0.12173 -0.60863,0.12173 -0.85209,0.12173c-0.48691,0 -0.85209,-0.12173 -1.21727,-0.24345c0.60863,1.339 1.8259,1.94763 3.53008,1.94763c0.36518,0 0.97382,0 1.46072,-0.12173c3.1649,-0.60863 5.35599,-3.53008 4.5039,-7.42535c-0.97382,-4.13872 -4.99081,-6.3298 -9.4947,-6.3298c-0.73036,0 -1.58245,0.12173 -2.43454,0.24345c-6.45153,1.21727 -10.34679,7.06016 -8.88607,13.14651c0,0.48691 0.24345,0.85209 0.36518,1.339c0.85209,2.67799 3.28663,4.99081 5.72117,6.45153c3.65181,2.19109 7.42535,2.31281 10.34679,2.55627c10.34679,0 26.90166,-3.89526 26.90166,-17.04178z" data-paper-data="{&quot;glyphName&quot;:&quot;S&quot;,&quot;glyphIndex&quot;:3,&quot;firstGlyphOfWord&quot;:true,&quot;word&quot;:2}"></path><path d="M372.7549,262.09264v-26.04957c0,-4.99081 -0.36518,-8.52089 -1.09554,-10.59025c-1.70418,-4.99081 -6.93844,-7.6688 -12.05097,-7.6688c-5.96462,0 -10.10334,2.79972 -14.24206,6.81671v-12.41615c0,-6.93844 -6.3298,-12.6596 -14.12033,-12.6596h-0.36518v63.41975l14.48551,-0.85209v-32.37937c2.06936,-2.79972 4.5039,-5.72117 8.27743,-5.72117c2.06936,0 3.40836,0.97382 4.13872,2.92145c0.24345,0.85209 0.48691,3.04317 0.48691,6.69498v27.75375c0,0.60863 -0.12173,1.09554 -0.12173,1.58245z" data-paper-data="{&quot;glyphName&quot;:&quot;h&quot;,&quot;glyphIndex&quot;:4,&quot;word&quot;:2}"></path><path d="M425.46268,233.36507c-4.13872,-9.4947 -11.68579,-15.94623 -22.51949,-15.94623c-8.52089,0 -17.52868,4.38217 -20.57186,12.6596c-2.06936,5.47771 -1.94763,11.19888 0.36518,17.04178c3.40836,8.76434 12.1727,15.94623 21.78913,15.94623c9.0078,0 18.62423,-4.74735 21.6674,-13.63342c1.8259,-4.86908 1.46072,-10.22507 -0.73036,-16.06796zM414.50725,256.4932c-0.73036,1.09554 -1.8259,1.8259 -3.28663,2.31281c-0.60863,0.24345 -1.21727,0.24345 -1.8259,0.24345c-0.85209,0 -1.8259,-0.12173 -2.79972,-0.60863c-5.96462,-2.79972 -11.44234,-20.45013 -13.14651,-26.41475c-0.97382,-3.40836 -0.97382,-5.84289 -0.24345,-7.30362c0.97382,-2.19109 3.28663,-3.40836 5.72117,-3.40836c2.43454,0 4.38217,1.58245 5.84289,3.40836c3.28663,3.89526 9.98161,22.03258 10.59025,26.90166c0.36518,1.8259 0,3.53008 -0.85209,4.86908z" data-paper-data="{&quot;glyphName&quot;:&quot;o&quot;,&quot;glyphIndex&quot;:5,&quot;word&quot;:2}"></path><path d="M483.03953,233.4868c-3.77354,-9.61643 -11.80752,-15.94623 -22.39776,-15.94623c-2.55627,0 -5.11253,0.36518 -7.6688,1.21727c-1.46072,0.36518 -2.67799,0.97382 -4.01699,1.58245v-1.09554l-14.48551,-4.99081v68.1671h2.43454c6.69498,0 12.05097,-4.86908 12.05097,-10.8337v-13.63342c0.73036,0.73036 1.339,1.21727 1.94763,1.8259c0.36518,0.12173 0.60863,0.36518 0.97382,0.60863c3.1649,1.8259 6.57326,2.79972 10.22507,2.79972c9.0078,0 18.74595,-4.74735 21.78913,-13.63342c1.70418,-4.86908 1.46072,-10.22507 -0.85209,-16.06796zM472.20583,256.61492c-0.73036,1.09554 -1.8259,1.8259 -3.28663,2.19109c-0.60863,0.24345 -1.21727,0.24345 -1.8259,0.24345c-0.97382,0 -1.8259,-0.12173 -2.79972,-0.48691c-6.08635,-3.04317 -11.56406,-19.96322 -13.14651,-26.41475c-0.48691,-1.58245 -0.73036,-2.92145 -0.73036,-4.13872c-0.12173,-1.339 0,-2.43454 0.36518,-3.28663c1.339,-2.19109 3.1649,-3.28663 5.72117,-3.28663c0.60863,0 1.09554,0 1.58245,0.12173c1.58245,0.48691 3.04317,1.58245 4.38217,3.1649c3.40836,4.26044 9.73816,21.6674 10.59025,26.90166c0.24345,1.94763 0,3.65181 -0.85209,4.99081z" data-paper-data="{&quot;glyphName&quot;:&quot;p&quot;,&quot;glyphIndex&quot;:6,&quot;lastGlyphOfWord&quot;:true,&quot;word&quot;:2}"></path><g data-paper-data="{&quot;initialText&quot;:&quot;K&quot;,&quot;fillRule&quot;:&quot;nonzero&quot;,&quot;selectedEffects&quot;:{&quot;container&quot;:&quot;enclosed_circle_outline3&quot;,&quot;transformation&quot;:&quot;&quot;,&quot;pattern&quot;:&quot;&quot;},&quot;blockLetter&quot;:&quot;O&quot;,&quot;blockLetterId&quot;:0,&quot;relativeBoundsIconToContainer&quot;:{&quot;top&quot;:4.7316179007441774e-7,&quot;left&quot;:0.004939546112483773},&quot;widthRatioIconToContainer&quot;:0.7792438510420137,&quot;heightRatioIconToContainer&quot;:0.7412868044955417,&quot;bounds&quot;:{&quot;x&quot;:65,&quot;y&quot;:187.57895882879194,&quot;width&quot;:86.70315375388691,&quot;height&quot;:86.70306705073745},&quot;isIcon&quot;:&quot;true&quot;,&quot;iconType&quot;:&quot;initial&quot;,&quot;iconStyle&quot;:&quot;icon-in-text&quot;,&quot;rawInitialId&quot;:836,&quot;line&quot;:1,&quot;iconInPrimaryText&quot;:true,&quot;suitableAsStandaloneIcon&quot;:true}"><path d="M108.8385,222.6531l27.75375,37.61363l5.11253,1.46072v1.339h-14.36378c-6.3298,0 -10.10334,-3.04317 -13.87687,-7.79053l-15.3376,-21.18049v26.1713l6.08635,1.46072v1.339h-29.21447v-1.339l6.20808,-1.46072v-58.6724l-6.20808,-1.339v-1.46072h29.21447v1.46072l-6.08635,1.339v28.84929c0,0 13.51169,-15.09414 18.13732,-19.96322c2.55626,-2.55626 6.57326,-6.45153 12.90306,-6.45153c1.21727,0 2.55626,0.12173 4.01699,0.48691c6.93844,1.58245 11.32061,8.03398 8.52089,14.12033c-1.70418,3.77354 -5.23426,6.45153 -9.37297,6.45153c-0.97382,0 -1.8259,-0.12173 -2.79972,-0.36518c-4.13872,-1.09554 -6.08635,-4.38217 -5.11253,-7.06016c0.73036,-2.19108 2.06936,-3.1649 4.26045,-3.1649c-0.60863,0.36518 -0.97382,0.97382 -1.21727,1.70418c-0.73036,2.19108 0.85209,4.5039 3.40836,5.23426c0.73036,0.24345 1.46072,0.24345 2.06936,0.24345c3.04317,0 5.35599,-1.8259 6.20808,-4.26045c1.8259,-5.23426 -1.8259,-9.61643 -6.81671,-10.71197c-0.97382,-0.24345 -1.94763,-0.36518 -2.79972,-0.36518c-6.20808,0 -10.34679,5.11253 -10.34679,5.11253zM91.47669,190.98643c5.37077,-2.27165 10.99576,-3.40747 16.87497,-3.40747c5.87909,0 11.50402,1.13582 16.87478,3.40747c5.18678,2.19378 9.77989,5.29041 13.77934,9.2899c3.99944,3.99944 7.09607,8.59254 9.28988,13.77929c2.27167,5.37074 3.4075,10.99571 3.4075,16.87491c0,5.87909 -1.13583,11.50402 -3.4075,16.87478c-1.80893,4.27718 -4.23192,8.15065 -7.26895,11.62042l-0.71388,-0.20409l-0.64983,-0.18543l-1.29911,-0.37141l-0.55083,-0.15726l-0.20321,-0.2754c3.23094,-3.45406 5.76908,-7.36261 7.61444,-11.72565c2.09608,-4.95559 3.14412,-10.14757 3.14412,-15.57594c0,-5.42832 -1.04804,-10.62027 -3.14412,-15.57586c-0.21821,-0.51593 -0.44611,-1.0255 -0.6837,-1.52872l-0.00469,-0.05229l-0.08643,-0.66988l-0.02571,-0.15173l-0.13702,-0.6614l-0.0361,-0.14646l-0.18598,-0.64939l-0.04568,-0.1399l-0.23247,-0.63419l-0.05388,-0.13243l-0.27678,-0.61622l-0.06099,-0.12447l-0.31835,-0.59587l-0.06701,-0.11621l-0.35691,-0.5735l-0.0722,-0.10803l-0.39302,-0.54948l-0.07631,-0.09996l-0.42611,-0.52408l-0.07986,-0.0922l-0.45701,-0.49749l-0.0826,-0.08478l-0.48518,-0.46995l-0.08478,-0.0777l-0.51117,-0.44167l-0.08697,-0.07097l-0.53496,-0.41271l-0.08834,-0.06457l-0.55629,-0.3832l-0.08998,-0.05845l-0.2499,-0.15335c-0.55482,-0.62741 -1.13156,-1.24045 -1.73022,-1.83911c-3.69276,-3.69287 -7.93288,-6.55175 -12.72035,-8.57663c-4.95541,-2.09603 -10.14729,-3.14404 -15.57567,-3.14404c-5.42839,0 -10.62036,1.04802 -15.57591,3.14404c-1.84337,0.77968 -3.60561,1.68302 -5.28671,2.71h-5.83815c2.99656,-2.35099 6.27183,-4.27809 9.8258,-5.78129zM125.22644,270.87452c-5.37076,2.27167 -10.99568,3.4075 -16.87478,3.4075c-5.87917,0 -11.50416,-1.13583 -16.87497,-3.4075c-3.55395,-1.50309 -6.82922,-3.43015 -9.82579,-5.78118h5.83809c1.68111,1.027 3.44336,1.93036 5.28676,2.71008c4.95557,2.0959 10.14754,3.14385 15.57591,3.14385c5.42837,0 10.62026,-1.04795 15.57567,-3.14385c1.84343,-0.77972 3.60572,-1.68309 5.28684,-2.71008h5.838c-2.99652,2.35093 -6.27176,4.27799 -9.82573,5.78118zM68.40747,247.80531c-2.27165,-5.37076 -3.40747,-10.99568 -3.40747,-16.87478c0,-5.87917 1.13582,-11.50414 3.40747,-16.87491c1.70082,-4.02118 3.9443,-7.68555 6.73046,-10.99312l2.50769,2.19971c-2.55086,3.0392 -4.60647,6.40335 -6.16684,10.09248c-2.09603,4.95557 -3.14404,10.14752 -3.14404,15.57586c0,5.42837 1.04802,10.62035 3.14404,15.57594c1.56829,3.70784 3.63688,7.08744 6.20578,10.1388l-2.48559,2.22554c-2.81445,-3.32644 -5.07828,-7.01494 -6.7915,-11.0655z" data-paper-data="{&quot;isPathIcon&quot;:true}"></path></g></g></g></g></svg>